<svg height="480pt" viewBox="0 -40 480 480" width="480pt" xmlns="http://www.w3.org/2000/svg"><g fill="#7fcac9"><path d="m144 345.023438-16 26.097656v5.222656c0 8.835938 7.164062 16 16 16s16-7.164062 16-16v-5.222656zm0 0"/><path d="m240 345.023438-16 26.097656v5.222656c0 8.835938 7.164062 16 16 16s16-7.164062 16-16v-5.222656zm0 0"/><path d="m336 345.023438-16 26.097656v5.222656c0 8.835938 7.164062 16 16 16s16-7.164062 16-16v-5.222656zm0 0"/></g><path d="m232 208c-3.234375 0-6.152344-1.949219-7.390625-4.9375s-.550781-6.429688 1.734375-8.71875l32-32c3.140625-3.03125 8.128906-2.988281 11.214844.097656 3.085937 3.085938 3.128906 8.074219.097656 11.214844l-32 32c-1.5 1.5-3.535156 2.34375-5.65625 2.34375zm0 0"/><path d="m232 208c-3.234375 0-6.152344-1.949219-7.390625-4.9375s-.550781-6.429688 1.734375-8.71875l32-32c3.140625-3.03125 8.128906-2.988281 11.214844.097656 3.085937 3.085938 3.128906 8.074219.097656 11.214844l-32 32c-1.5 1.5-3.535156 2.34375-5.65625 2.34375zm0 0"/><path d="m136 208c-3.234375 0-6.152344-1.949219-7.390625-4.9375s-.550781-6.429688 1.734375-8.71875l32-32c3.140625-3.03125 8.128906-2.988281 11.214844.097656 3.085937 3.085938 3.128906 8.074219.097656 11.214844l-32 32c-1.5 1.5-3.535156 2.34375-5.65625 2.34375zm0 0"/><path d="m320 208c-3.234375 0-6.152344-1.949219-7.390625-4.9375s-.550781-6.429688 1.734375-8.71875l32-32c3.140625-3.03125 8.128906-2.988281 11.214844.097656 3.085937 3.085938 3.128906 8.074219.097656 11.214844l-32 32c-1.5 1.5-3.535156 2.34375-5.65625 2.34375zm0 0"/><path d="m384 120c-10.957031 1.332031-21.707031 4.019531-32 8-10.863281-66.121094-53.710938-120-112-120s-101.136719 53.878906-112 120c-10.292969-3.980469-21.042969-6.667969-32-8-48.601562 0-88 39.398438-88 88s39.398438 88 88 88h288c48.601562 0 88-39.398438 88-88s-39.398438-88-88-88zm0 0" fill="#cfdfe8"/><path d="m150.816406 340.839844c-1.554687-2.21875-4.09375-3.539063-6.800781-3.539063s-5.246094 1.320313-6.800781 3.539063l-16 26.105468c-.785156 1.25-1.207032 2.695313-1.214844 4.175782v5.214844c0 13.253906 10.746094 24 24 24s24-10.746094 24-24v-5.214844c0-1.476563-.410156-2.921875-1.183594-4.175782zm1.183594 35.496094c0 4.417968-3.582031 8-8 8s-8-3.582032-8-8v-2.960938l8-13.046875 8 13.046875zm0 0"/><path d="m264 376.335938v-5.214844c0-1.476563-.410156-2.921875-1.183594-4.175782l-16-26.105468c-1.554687-2.21875-4.09375-3.539063-6.800781-3.539063s-5.246094 1.320313-6.800781 3.539063l-16 26.105468c-.785156 1.25-1.207032 2.695313-1.214844 4.175782v5.214844c0 13.253906 10.746094 24 24 24s24-10.746094 24-24zm-32 0v-2.960938l8-13.046875 8 13.046875v2.960938c0 4.417968-3.582031 8-8 8s-8-3.582032-8-8zm0 0"/><path d="m360 376.335938v-5.214844c0-1.476563-.410156-2.921875-1.183594-4.175782l-16-26.105468c-1.554687-2.21875-4.09375-3.539063-6.800781-3.539063s-5.246094 1.320313-6.800781 3.539063l-16 26.105468c-.785156 1.25-1.207032 2.695313-1.214844 4.175782v5.214844c0 13.253906 10.746094 24 24 24s24-10.746094 24-24zm-32 0v-2.960938l8-13.046875 8 13.046875v2.960938c0 4.417968-3.582031 8-8 8s-8-3.582032-8-8zm0 0"/><path d="m258.34375 162.34375-32 32c-2.078125 2.007812-2.914062 4.984375-2.179688 7.78125.730469 2.796875 2.914063 4.980469 5.710938 5.710938 2.796875.734374 5.773438-.101563 7.78125-2.179688l32-32c3.03125-3.140625 2.988281-8.128906-.097656-11.214844-3.085938-3.085937-8.074219-3.128906-11.214844-.097656zm0 0"/><path d="m162.34375 162.34375-32 32c-2.078125 2.007812-2.914062 4.984375-2.179688 7.78125.730469 2.796875 2.914063 4.980469 5.710938 5.710938 2.796875.734374 5.773438-.101563 7.78125-2.179688l32-32c3.03125-3.140625 2.988281-8.128906-.097656-11.214844-3.085938-3.085937-8.074219-3.128906-11.214844-.097656zm0 0"/><path d="m346.34375 162.34375-32 32c-2.078125 2.007812-2.914062 4.984375-2.179688 7.78125.730469 2.796875 2.914063 4.980469 5.710938 5.710938 2.796875.734374 5.773438-.101563 7.78125-2.179688l32-32c3.03125-3.140625 2.988281-8.128906-.097656-11.214844-3.085938-3.085937-8.074219-3.128906-11.214844-.097656zm0 0"/><path d="m384 112c-8.828125.632812-17.519531 2.519531-25.816406 5.601562-14.640625-69.714843-62.253906-117.601562-118.183594-117.601562s-103.542969 47.886719-118.183594 117.601562c-8.296875-3.082031-16.988281-4.96875-25.816406-5.601562-53.019531 0-96 42.980469-96 96s42.980469 96 96 96h288c53.019531 0 96-42.980469 96-96s-42.980469-96-96-96zm0 176h-288c-44.183594 0-80-35.816406-80-80s35.816406-80 80-80c8.464844.992188 16.773438 3.023438 24.734375 6.054688l4.875 1.601562c2.210937.691406 4.613281.394531 6.585937-.820312 1.976563-1.21875 3.324219-3.230469 3.699219-5.515626 10.960938-66.726562 53.769531-113.320312 104.105469-113.320312s93.144531 46.59375 104.105469 113.296875c.375 2.285156 1.722656 4.296875 3.699219 5.511719 1.972656 1.21875 4.375 1.515625 6.585937.824218l4.875-1.601562c7.964844-3.023438 16.273437-5.046875 24.734375-6.03125 44.183594 0 80 35.816406 80 80s-35.816406 80-80 80zm0 0"/></svg>